<svg width="21" height="20" viewBox="0 0 21 20" fill="none" xmlns="http://www.w3.org/2000/svg">
<path d="M3.83325 15.0001C3.83325 14.116 4.18444 13.2682 4.80956 12.6431C5.43468 12.0179 6.28253 11.6667 7.16659 11.6667H13.8333C14.7173 11.6667 15.5652 12.0179 16.1903 12.6431C16.8154 13.2682 17.1666 14.116 17.1666 15.0001C17.1666 15.4421 16.991 15.866 16.6784 16.1786C16.3659 16.4912 15.9419 16.6667 15.4999 16.6667H5.49992C5.05789 16.6667 4.63397 16.4912 4.32141 16.1786C4.00885 15.866 3.83325 15.4421 3.83325 15.0001Z" stroke="white" stroke-width="1.66667" stroke-linejoin="round"/>
<path d="M10.5 8.33337C11.8807 8.33337 13 7.21409 13 5.83337C13 4.45266 11.8807 3.33337 10.5 3.33337C9.11929 3.33337 8 4.45266 8 5.83337C8 7.21409 9.11929 8.33337 10.5 8.33337Z" stroke="white" stroke-width="1.66667"/>
</svg>
